<svg width="208" height="38.40003626739577" viewBox="0 0 370.00000000000006 68.30775682180979" class="css-1j8o68f"><defs id="SvgjsDefs1209"></defs><g id="SvgjsG1210" featurekey="odWo6G-0" transform="matrix(0.7777734921538468,0,0,0.7777734921538468,-3.8890617973313377,-8.497479770559941)" fill="#000000"><path xmlns="http://www.w3.org/2000/svg" d="M21.768,35.732c-0.977-0.977-2.559-0.977-3.535,0l-12.5,12.5c-0.977,0.976-0.977,2.559,0,3.535l12.5,12.5  C18.721,64.756,19.36,65,20,65s1.279-0.244,1.768-0.732c0.977-0.977,0.977-2.559,0-3.535L11.035,50l10.732-10.732  C22.744,38.292,22.744,36.708,21.768,35.732z"></path><path xmlns="http://www.w3.org/2000/svg" d="M81.768,35.732c-0.977-0.977-2.559-0.977-3.535,0c-0.977,0.976-0.977,2.559,0,3.535L88.965,50L78.232,60.732  c-0.977,0.977-0.977,2.559,0,3.535C78.721,64.756,79.36,65,80,65s1.279-0.244,1.768-0.732l12.5-12.5  c0.977-0.976,0.977-2.559,0-3.535L81.768,35.732z"></path><path xmlns="http://www.w3.org/2000/svg" d="M65.604,19.442l-4.699-1.71c-0.689-0.251-1.409-0.378-2.138-0.378c-2.617,0-4.978,1.653-5.873,4.113l-1.709,4.696  c0,0.001-0.001,0.002-0.002,0.003s0,0.002,0,0.003l-17.1,46.982c-0.052,0.143-0.069,0.293-0.067,0.444c0,0.025-0.002,0.05,0,0.075  c0.001,0.017-0.002,0.034,0,0.051l1.917,16.66c0.055,0.471,0.37,0.87,0.814,1.032c0.14,0.051,0.284,0.075,0.428,0.075  c0.314,0,0.623-0.119,0.859-0.342l12.179-11.53c0.029-0.027,0.05-0.061,0.076-0.091c0.024-0.028,0.049-0.054,0.071-0.084  c0.069-0.094,0.129-0.195,0.169-0.305l17.1-46.983c0,0,0-0.001,0.001-0.001c0,0,0-0.001,0-0.001l1.71-4.698  c0.57-1.569,0.497-3.266-0.208-4.779C68.424,21.161,67.172,20.013,65.604,19.442z M55.243,22.322  c0.537-1.477,1.953-2.469,3.523-2.469c0.437,0,0.868,0.077,1.282,0.228l4.699,1.71c0.941,0.342,1.692,1.031,2.115,1.938  c0.424,0.908,0.468,1.926,0.125,2.867l-1.283,3.524l-8.22-2.992c-0.001,0-0.001-0.001-0.002-0.001s-0.001,0-0.002,0l-3.522-1.282  L55.243,22.322z M48.606,77.106l-2.35-0.855l16.246-44.634l2.348,0.855L48.606,77.106z M41.558,74.541l16.246-44.635l2.349,0.855  L43.906,75.395L41.558,74.541z M36.859,72.831l16.246-44.635l2.349,0.855L39.208,73.686L36.859,72.831z M36.73,75.445l2.797,1.018  c0,0,0,0,0,0s0,0,0.001,0l4.697,1.709c0,0,0.001,0,0.001,0.001c0,0,0.001,0,0.001,0l2.797,1.018l-8.894,8.42L36.73,75.445z"></path></g><g id="SvgjsG1211" featurekey="VGK2BT-0" transform="matrix(3.6730095027447374,0,0,3.6730095027447374,89.68375181241461,-23.345205092150106)" fill="#000000"><path d="M2.0676 8.492 c-0.57627 0 -1.0169 -0.44068 -1.0169 -1.0169 c0 -0.55932 0.44068 -1.0169 1.0169 -1.0169 c0.55932 0 1 0.45763 1 1.0169 c0 0.57627 -0.44068 1.0169 -1 1.0169 z M2.7456 11.6102 l-1.2883 0 c-0.16949 0 -0.27119 0.11881 -0.27119 0.27119 l0 9.8136 c0 0.77966 -0.28814 1.2034 -0.91525 1.5085 c-0.18644 0.084746 -0.22034 0.20339 -0.15254 0.35593 l0.64407 1.2542 c0.084746 0.15254 0.20339 0.16933 0.37288 0.10153 c1.3222 -0.64407 1.8985 -1.7966 1.8985 -3.2202 l0 -9.8136 c0 -0.15238 -0.11864 -0.27119 -0.28814 -0.27119 z M9.271037288135593 20.11864 c2.3729 0 4.339 -1.8812 4.339 -4.3049 c0 -2.4746 -1.9661 -4.322 -4.339 -4.322 s-4.339 1.8475 -4.339 4.322 c0 2.4237 1.9661 4.3049 4.339 4.3049 z M9.271037288135593 18.39 c-1.4576 0 -2.5424 -1.2034 -2.5424 -2.5593 c0 -1.4068 1.0847 -2.6102 2.5424 -2.6102 s2.5424 1.2034 2.5424 2.6102 c0 1.3559 -1.0847 2.5593 -2.5424 2.5593 z M19.64393559322034 11.5256 c1.9831 0 3.8812 1.6273 3.8812 4.1697 c0 2.4746 -1.5424 4.4064 -3.9322 4.4064 c-0.91525 0 -1.6949 -0.30475 -2.3049 -0.72847 c-0.084746 0.40678 -0.54237 0.62695 -0.88136 0.62695 l-0.67797 0 c-0.15254 0 -0.27119 -0.11864 -0.27119 -0.27102 l0 -11.831 c0 -0.52542 -0.084746 -0.79661 -0.13559 -1.1017 c-0.033732 -0.18661 0.017115 -0.3561 0.18661 -0.3561 l1.1525 0 c0.38983 0 0.64407 0.25424 0.64407 0.61017 l0 5.1356 c0.57627 -0.35593 1.3219 -0.66102 2.3388 -0.66102 z M19.30473559322034 18.3903 c1.3729 0 2.4068 -1.0169 2.4068 -2.6949 c0 -1.7288 -1.2712 -2.4576 -2.339 -2.4576 c-0.76271 0 -1.4576 0.27119 -2.0678 0.66102 l0 3.9322 c0.54237 0.30508 1.1864 0.55932 2 0.55932 z M38.440489830508476 11.6102 c0.15254 0 0.27102 0.11881 0.27102 0.27119 l0 7.8305 c0 0.18644 -0.10186 0.28797 -0.25424 0.28797 l-0.94915 0 c-0.40678 0 -0.64407 -0.28797 -0.64407 -0.6778 l0 -6 l-3.7966 0 l0 6.3898 c0 0.16949 -0.10169 0.28814 -0.27119 0.28814 l-0.9322 0 c-0.42373 0 -0.64407 -0.28797 -0.64407 -0.69475 l0 -5.9831 l-1.2034 0 c-0.13559 0 -0.22034 -0.067797 -0.22034 -0.18644 l0 -1.0339 c0 -0.32203 0.20339 -0.49153 0.50847 -0.49153 l0.91525 0 l0 -1.8475 c0 -2.3051 1.5254 -3.4069 3.5086 -3.4069 c0.84746 0 1.5932 0.23746 2.1525 0.57644 c0.11864 0.067631 0.18644 0.22017 0.11864 0.35576 l-0.47458 1.0508 c-0.067797 0.15254 -0.20339 0.18644 -0.37288 0.13559 c-0.23729 -0.11864 -0.72881 -0.37288 -1.3729 -0.37288 s-1.7119 0.35593 -1.7119 1.661 l0 1.8475 l5.3729 0 z M49.13545084745763 19.64424 c0.033898 0.18644 -0.016784 0.35576 -0.16916 0.35576 l-1.1017 0 c-0.44068 0 -0.66102 -0.28797 -0.66102 -0.6778 l0 -4.4068 c0 -1.1186 -0.77966 -1.7627 -1.8983 -1.7627 c-0.9661 0 -1.7797 0.45763 -2.4575 1.1186 l0 5.4578 c0 0.15238 -0.11864 0.27102 -0.27119 0.27102 l-1.3222 0 c-0.15238 0 -0.25407 -0.11864 -0.25407 -0.27102 l0 -7.8476 c0 -0.15238 0.10169 -0.27119 0.25407 -0.27119 l0.91525 0 c0.40678 0 0.66102 0.42373 0.67797 0.72881 l0 0.16949 c0.66102 -0.50864 1.5422 -1.0171 2.6947 -1.0171 c1.7458 0 3.4915 1.1019 3.4915 3.2205 l0 3.7627 c0.016784 0.47458 0.050681 0.83051 0.10153 1.1695 z M57.9999593220339 6.441000000000001 c0.38983 0 0.64424 0.25458 0.64424 0.61051 l0 12.678 c0 0.15238 -0.11864 0.27102 -0.25424 0.27102 l-0.69492 0 c-0.33898 0 -0.79661 -0.22017 -0.88119 -0.62695 c-0.59356 0.42373 -1.3902 0.74542 -2.3393 0.74542 c-2.3898 0 -3.9831 -1.932 -3.9831 -4.4066 c0 -2.5424 1.9492 -4.1695 3.9322 -4.1695 c1.0508 0 1.7964 0.3222 2.39 0.67797 l0 -4.322 c0 -0.52542 -0.10186 -0.79661 -0.15271 -1.1017 c-0.033898 -0.18661 0.033898 -0.3561 0.18644 -0.3561 l1.1525 0 z M52.305259322033905 15.712399999999999 c0 1.678 1.0847 2.6949 2.4746 2.6949 c0.83051 0 1.4915 -0.27119 2.0339 -0.57627 l0 -3.8814 c-0.62712 -0.40678 -1.322 -0.69492 -2.1017 -0.69492 c-1.0678 0 -2.4068 0.72881 -2.4068 2.4576 z M67.52541694915254 16.4915 c0.61 0 1.0336 -0.30508 1.0336 -1.0169 c0 -2.0847 -1.6102 -3.9831 -4.0847 -3.9831 c-2.3559 0 -4.2034 1.8644 -4.2034 4.3051 c0 2.5422 1.9322 4.288 4.3051 4.288 c1.5085 0 2.6949 -0.61017 3.4237 -1.5932 c0.10186 -0.13559 0.067963 -0.23729 -0.033568 -0.37288 l-0.32203 -0.42373 c-0.13559 -0.16933 -0.27119 -0.15254 -0.44085 -0.050847 c-0.5422 0.44068 -1.4405 0.81373 -2.4236 0.81373 c-1.3898 0 -2.3729 -0.84746 -2.5593 -1.9661 l5.3051 0 z M62.220216949152544 15.050799999999999 c0.067797 -0.81356 0.83051 -1.8644 2.2203 -1.8644 c1.4068 0 2.1356 1.0678 2.1864 1.8644 l-4.4068 0 z M76.1354406779661 12.034099999999999 c0.18644 0.11864 0.23729 0.22017 0.11848 0.40661 l-0.69475 1.0169 c-0.084746 0.11864 -0.20339 0.15254 -0.35593 0.11864 c-0.35593 -0.16949 -0.66102 -0.32203 -1.2203 -0.32203 s-1.4407 0.23729 -1.9153 1.2881 l0 5.1866 c0 0.15238 -0.10169 0.27102 -0.25424 0.27102 l-1.339 0 c-0.15254 0 -0.25424 -0.11864 -0.25424 -0.27102 l0 -7.8476 c0 -0.15238 0.11864 -0.27119 0.25424 -0.27119 l0.9322 0 c0.40678 0 0.66102 0.42373 0.66102 0.72881 l0 0.11881 c0.59322 -0.54237 1.3051 -0.91525 2.2373 -0.91525 c0.86441 0 1.5085 0.27119 1.8305 0.49153 z"></path></g></svg>